<svg width="17" height="17" viewBox="0 0 17 17" fill="none" xmlns="http://www.w3.org/2000/svg">
<path d="M1.49146 9.44506C1.5596 9.37677 1.64506 9.32833 1.73865 9.30493C1.83224 9.28153 1.93044 9.28406 2.02271 9.31224C3.03569 9.61848 4.11277 9.64416 5.13919 9.38654C6.16562 9.12892 7.10291 8.59765 7.85122 7.84935C8.59952 7.10105 9.13078 6.16375 9.38841 5.13733C9.64603 4.1109 9.62035 3.03382 9.31411 2.02084C9.28569 1.92854 9.28297 1.83023 9.30624 1.7365C9.32951 1.64276 9.37789 1.55714 9.44619 1.48885C9.51448 1.42056 9.6001 1.37218 9.69383 1.3489C9.78757 1.32563 9.88587 1.32835 9.97817 1.35678C11.3787 1.78579 12.6082 2.64558 13.4917 3.81381C14.2644 4.83969 14.7357 6.06071 14.8527 7.3397C14.9697 8.61868 14.7278 9.90495 14.1541 11.054C13.5803 12.2031 12.6976 13.1694 11.6049 13.8444C10.5123 14.5194 9.25305 14.8763 7.96872 14.8751C6.47037 14.8797 5.01188 14.3926 3.817 13.4885C2.64878 12.605 1.78899 11.3755 1.35997 9.97498C1.33188 9.88302 1.32927 9.78516 1.35243 9.69183C1.37558 9.59851 1.42363 9.51322 1.49146 9.44506ZM4.45583 12.6399C5.58106 13.4874 6.97456 13.8999 8.37981 13.8015C9.78506 13.7031 11.1075 13.1004 12.1036 12.1044C13.0998 11.1083 13.7026 9.78594 13.8011 8.38069C13.8996 6.97545 13.4872 5.58191 12.6397 4.45662C12.0876 3.72752 11.3739 3.1365 10.5546 2.73006C10.6013 3.05759 10.6248 3.38801 10.625 3.71885C10.623 5.5499 9.8948 7.30541 8.60004 8.60017C7.30529 9.89492 5.54978 10.6232 3.71872 10.6251C3.38722 10.625 3.05613 10.6015 2.72794 10.5547C3.13476 11.3741 3.72625 12.0879 4.45583 12.6399Z" fill="#155DA4"/>
</svg>
