<svg width="14" height="14" viewBox="0 0 14 14" fill="none" xmlns="http://www.w3.org/2000/svg">
<path d="M7.00004 10.7916C9.09412 10.7916 10.7917 9.094 10.7917 6.99992C10.7917 4.90584 9.09412 3.20825 7.00004 3.20825C4.90596 3.20825 3.20837 4.90584 3.20837 6.99992C3.20837 9.094 4.90596 10.7916 7.00004 10.7916Z" stroke="#155DA4" stroke-linecap="round" stroke-linejoin="round"/>
<path d="M11.165 11.1651L11.0891 11.0892M11.0891 2.91091L11.165 2.83508L11.0891 2.91091ZM2.83496 11.1651L2.91079 11.0892L2.83496 11.1651ZM6.99996 1.21341V1.16675V1.21341ZM6.99996 12.8334V12.7867V12.8334ZM1.21329 7.00008H1.16663H1.21329ZM12.8333 7.00008H12.7866H12.8333ZM2.91079 2.91091L2.83496 2.83508L2.91079 2.91091Z" stroke="#155DA4" stroke-linecap="round" stroke-linejoin="round"/>
</svg>
